# xmcd CD database file
#
# Track frame offsets:
#	151
#	11755
#	22716
#	36336
#	55997
#	68285
#	81431
#	102189
#	113102
#	128479
#	147170
#	161330
#	173039
#	188864
#
# Disc length: 2699 seconds
#
# Revision: 3
# Processed by: cddbd v1.5.2PL0 Copyright (c) Steve Scherf et al.
# Submitted via: CDex 1.51
#
DISCID=a90a890e
DTITLE=Mac Wiseman and John Prine - Standard Songs For Average People
DYEAR=2007
DGENRE=Country
TTITLE0=Blue Eyed Elaine
TTITLE1=Don't Be Ashamed Of Your Age
TTITLE2=I Forgot To Remember To Forget
TTITLE3=I Love You Because
TTITLE4=Pistol Packin' Mama
TTITLE5=Saginaw Michigan
TTITLE6=Old Dogs, Children And Watermelon Wine
TTITLE7=Old Cape Cod
TTITLE8=Death Of Floyd Collins
TTITLE9=The Blue Side Of Lonesome
TTITLE10=In The Garden
TTITLE11=Just The Other Side Of Nowhere
TTITLE12=Old Rugged Cross
TTITLE13=Where The Blue Of The Night
EXTD=YEAR: 2007
EXTT0=
EXTT1=
EXTT2=
EXTT3=
EXTT4=
EXTT5=
EXTT6=
EXTT7=
EXTT8=
EXTT9=
EXTT10=
EXTT11=
EXTT12=
EXTT13=
PLAYORDER=
